<svg xmlns="http://www.w3.org/2000/svg" xmlns:xlink="http://www.w3.org/1999/xlink" width="74" height="179" viewBox="0 0 74 179"><defs><clipPath id="a"><rect width="74" height="179" transform="translate(0 461)" fill="#fff"/></clipPath></defs><g transform="translate(0 -461)" clip-path="url(#a)"><path d="M911.056-199.829h0a134.711,134.711,0,0,1-6.5-25.322,122.489,122.489,0,0,1-1.509-24.965,85.743,85.743,0,0,1,5.528-27.222c3.029-7.737,8.229-16.816,15.457-26.983a334.458,334.458,0,0,1,21.552-26.867l1.852,13.178a3.011,3.011,0,0,0,2.967,2.583,3.047,3.047,0,0,0,.421-.03,3,3,0,0,0,2.553-3.389l-2.556-18.187c14.257-15.649,26.544-27.113,26.666-27.227l0,.046c.071,2.105.663,21.212-.264,43.455-.573,13.761-1.607,26.037-3.072,36.487-1.831,13.063-4.346,23.294-7.474,30.41a82.98,82.98,0,0,1-14.478,21.6,147.667,147.667,0,0,1-18.479,17.112,183.221,183.221,0,0,1-22.669,15.319Z" transform="translate(-932.11 836.618)" fill="#39c79d"/><path d="M-246.665,504S-278.416,564.023-278,598s31.335,62.669,31.335,62.669,30.3-32.579,31.335-62.669S-246.665,504-246.665,504Z" transform="translate(573.41 293.785) rotate(38)" fill="#31e7b6"/></g></svg>